:SAMPLES-PER-SECOND 30
:FULLY-SPECIFIED
:DEGREES
503
root  57.5797 37.567 8.47795 165.152 79.9382 167.843
RightUpLeg  -13.1332 18.6505 -7.49251
RightLeg  36.5782 16.0976 12.2559
RightFoot  -17.6943 0.00616255 2.11857
RightToes  5.23868e-010 0 -3.6325e-017
Spine  23.2704 -1.18701 4.73186
Spine1  16.433 2.87743 -9.78478
HEad  -21.7755 22.3747 -17.7645
LeftShoulder1  1.46769 -2.26053 -18.9185
LeftArm  -23.9236 -40.8056 -39.9606
LeftForeArm  -2.46236 -61.2492 -21.4272
LeftHand  -0.00739104 4.32199 -2.42925
RightShoulder  0.650723 -0.286142 13.3531
RightArm  -30.7959 38.1449 32.6062
RightForeArm  -15.8701 63.1325 24.7222
RightHand  -0.0902483 -0.100031 -1.92786
LeftUpLeg  -20.2259 2.33702 2.81324
LeftLeg  16.9008 -18.3859 -5.32447
LeftFoot  7.70528 0.577795 -3.7202
LeftToes  -4.9204e-010 1.02043e-011 -1.81609e-011
504
root  57.3682 37.5598 9.15638 166.125 76.0279 169.721
RightUpLeg  -10.2874 15.6091 -6.03031
RightLeg  33.8178 12.8054 8.83706
RightFoot  -18.9429 -0.145837 -0.3295
RightToes  5.23868e-010 0 -3.6325e-017
Spine  22.9499 -1.55337 5.71363
Spine1  16.0949 2.20964 -8.49202
HEad  -20.2288 23.0467 -18.5226
LeftShoulder1  1.3463 -1.4569 -20.6988
LeftArm  -20.6796 -36.967 -40.9877
LeftForeArm  0.194516 -64.2561 -24.4655
LeftHand  -0.00459379 4.02372 -2.53045
RightShoulder  0.529532 -1.07572 15.1605
RightArm  -28.9107 33.504 33.0678
RightForeArm  -7.07969 68.6626 32.5242
RightHand  -0.0217986 -0.298501 -0.52541
LeftUpLeg  -19.0193 0.448077 2.42117
LeftLeg  14.0638 -20.726 -4.47191
LeftFoot  9.65455 0.868504 -4.99762
LeftToes  -4.9204e-010 1.02043e-011 -1.81609e-011
505
root  57.1703 37.593 9.83152 169.122 72.3416 173.125
RightUpLeg  -9.55468 13.5158 -4.53697
RightLeg  33.1422 10.7666 7.24975
RightFoot  -18.252 -0.179482 -0.926391
RightToes  5.23868e-010 0 -3.6325e-017
Spine  21.454 -1.87924 7.95203
Spine1  16.5781 2.03771 -7.89364
HEad  -18.5331 22.6771 -19.0586
LeftShoulder1  1.28983 -1.01216 -22.2235
LeftArm  -18.3859 -33.5359 -41.2064
LeftForeArm  2.71974 -66.5974 -27.5012
LeftHand  -0.0117286 4.37951 -2.27004
RightShoulder  0.390536 -1.82345 16.8324
RightArm  -27.1931 28.5042 33.4291
RightForeArm  3.85398 73.338 44.2199
RightHand  -0.0987172 -1.53785 -2.74793
LeftUpLeg  -18.1633 0.114132 2.25034
LeftLeg  10.6802 -24.1274 -3.08655
LeftFoot  11.3974 1.21147 -6.36981
LeftToes  -4.9204e-010 1.02043e-011 -1.81609e-011
506
root  56.9668 37.6489 10.415 170.521 68.3087 174.933
RightUpLeg  -8.98525 9.82318 -3.93863
RightLeg  32.6907 10.3638 6.85715
RightFoot  -17.6627 -0.199287 -1.45037
RightToes  5.23868e-010 0 -3.6325e-017
Spine  19.5372 -2.43808 9.9826
Spine1  17.6393 1.70763 -7.958
HEad  -16.428 21.8734 -19.8245
LeftShoulder1  1.18697 -0.457836 -23.7024
LeftArm  -16.7757 -29.5463 -41.0764
LeftForeArm  5.81404 -68.9374 -31.2075
LeftHand  -0.0201541 4.93192 -2.17714
RightShoulder  0.259082 -2.43268 18.0434
RightArm  -25.1231 24.2526 33.6514
RightForeArm  16.8035 76.0318 56.8195
RightHand  -0.104869 -2.15027 -3.38241
LeftUpLeg  -17.2625 0.554317 1.35182
LeftLeg  7.50713 -24.8231 -1.25828
LeftFoot  11.9936 1.57367 -8.00278
LeftToes  -4.9204e-010 1.02043e-011 -1.81609e-011
507
root  56.8073 37.7828 11.0407 171.236 63.2434 175.922
RightUpLeg  -8.07928 4.82355 -3.82003
RightLeg  31.5476 10.2638 6.50509
RightFoot  -16.8768 -0.191868 -1.59982
RightToes  5.23868e-010 0 -3.6325e-017
Spine  17.7387 -2.76412 10.439
Spine1  17.682 0.771142 -6.61371
HEad  -13.0978 20.8011 -19.3921
LeftShoulder1  1.02993 0.2063 -25.0056
LeftArm  -14.6278 -25.6661 -41.0311
LeftForeArm  8.19361 -70.1644 -33.5601
LeftHand  -0.00780306 4.44115 -2.24554
RightShoulder  0.165838 -2.83549 19.2779
RightArm  -22.7938 19.1717 34.4019
RightForeArm  30.7132 77.536 70.0372
RightHand  -0.0944279 -2.12502 -3.01435
LeftUpLeg  -16.8302 1.12005 0.637938
LeftLeg  6.72527 -19.8282 -1.21527
LeftFoot  10.4267 2.14766 -11.4633
LeftToes  -4.9204e-010 1.02043e-011 -1.81609e-011
508
root  56.6262 37.9787 11.6145 171.195 57.8229 175.96
RightUpLeg  -6.95042 0.954112 -4.03435
RightLeg  29.6367 9.10677 5.33522
RightFoot  -16.0892 -0.146631 -0.909112
RightToes  5.23868e-010 0 -3.6325e-017
Spine  16.5902 -2.80344 9.78847
Spine1  16.6126 -0.216294 -4.65048
HEad  -9.6078 19.087 -18.847
LeftShoulder1  0.908911 0.719249 -26.5167
LeftArm  -12.8041 -21.2561 -41.1291
LeftForeArm  11.0611 -71.007 -35.1825
LeftHand  0.00673726 3.85287 -2.24591
RightShoulder  -0.00585734 -3.49597 21.257
RightArm  -19.9392 13.9497 33.9138
RightForeArm  44.1 78.1983 83.724
RightHand  -0.109439 -2.56538 -4.00951
LeftUpLeg  -16.5939 0.527636 -0.416149
LeftLeg  8.37324 -14.7789 -1.67377
LeftFoot  8.4368 1.7517 -10.2815
LeftToes  -4.9204e-010 1.02043e-011 -1.81609e-011
509
root  56.3845 38.2473 11.9962 171.318 51.8485 176.123
RightUpLeg  -5.19441 -3.83459 -4.79767
RightLeg  26.7276 8.51434 4.41017
RightFoot  -14.8703 -0.104834 -0.119389
RightToes  5.23868e-010 0 -3.6325e-017
Spine  15.5197 -3.50298 10.1003
Spine1  15.7054 -1.33 -3.87487
HEad  -7.16771 17.9209 -18.7651
LeftShoulder1  0.723338 1.39975 -28.2236
LeftArm  -12.006 -17.6406 -41.21
LeftForeArm  13.2623 -71.3748 -35.7849
LeftHand  0.00645507 4.01769 -2.52085
RightShoulder  -0.180114 -4.09023 23.2226
RightArm  -17.3477 8.8342 33.2529
RightForeArm  56.7353 78.2324 95.4646
RightHand  -0.110959 -2.57945 -4.10125
LeftUpLeg  -16.2355 -2.00494 -1.57229
LeftLeg  11.0732 -11.4558 -1.69778
LeftFoot  6.32812 1.00629 -6.72759
LeftToes  -4.9204e-010 1.02043e-011 -1.81609e-011
510
root  56.1945 38.5481 12.3865 171.624 47.7379 175.833
RightUpLeg  -4.22428 -6.72523 -5.34104
RightLeg  23.6451 7.75379 3.4805
RightFoot  -13.3616 -0.076794 0.757865
RightToes  5.23868e-010 0 -3.6325e-017
Spine  13.9391 -3.22623 10.8836
Spine1  15.2133 -0.920631 -4.33972
HEad  -5.24712 15.1242 -17.6086
LeftShoulder1  0.622819 1.72583 -28.8993
LeftArm  -11.3264 -13.8026 -40.5888
LeftForeArm  15.3654 -72.0842 -37.4904
LeftHand  0.0263355 3.6885 -3.38305
RightShoulder  -0.241589 -4.27048 24.142
RightArm  -15.784 2.14291 34.1748
RightForeArm  70.3685 77.6944 108.449
RightHand  -0.114884 -1.98658 -3.60665
LeftUpLeg  -15.9037 -3.68992 -2.00402
LeftLeg  13.6545 -7.83023 -1.57723
LeftFoot  4.33178 0.662909 -5.02177
LeftToes  -4.9204e-010 1.02043e-011 -1.81609e-011
511
root  56.0265 38.7996 12.7822 171.942 43.7441 175.698
RightUpLeg  -3.17079 -9.53501 -5.82233
RightLeg  20.6659 6.76107 2.59355
RightFoot  -12.0146 -0.0723601 1.5197
RightToes  5.23868e-010 0 -3.6325e-017
Spine  12.5839 -2.58191 11.2246
Spine1  15.0942 -0.239933 -4.47025
HEad  -3.76437 12.294 -17.0158
LeftShoulder1  0.543585 1.95331 -28.9346
LeftArm  -11.0565 -9.69043 -40.389
LeftForeArm  19.4558 -73.2905 -40.7133
LeftHand  0.00796421 4.28605 -3.63393
RightShoulder  -0.349807 -4.58713 25.2076
RightArm  -14.5253 -4.17396 34.9062
RightForeArm  82.4324 76.7811 118.755
RightHand  -0.0862424 -1.89954 -2.58218
LeftUpLeg  -15.3968 -2.92665 -2.23292
LeftLeg  16.6406 -6.67147 -1.92573
LeftFoot  2.56977 0.530757 -4.48468
LeftToes  -4.9204e-010 1.02043e-011 -1.81609e-011
512
root  55.8135 38.9651 13.0568 172.24 39.7112 175.461
RightUpLeg  -2.20938 -12.4995 -6.8434
RightLeg  18.2981 6.1396 2.48072
RightFoot  -11.4114 -0.075538 2.69925
RightToes  5.23868e-010 0 -3.6325e-017
Spine  11.258 -1.98834 12.1087
Spine1  14.9634 0.570323 -4.95325
HEad  -2.73255 8.79512 -16.8635
LeftShoulder1  0.473818 2.17238 -29.5344
LeftArm  -10.773 -6.97719 -39.4782
LeftForeArm  22.0835 -73.9085 -42.567
LeftHand  0.034135 3.73673 -4.00306
RightShoulder  -0.449852 -4.86758 26.1225
RightArm  -13.5799 -9.63976 35.3705
RightForeArm  91.5754 75.7679 126.132
RightHand  -0.0920493 -2.26405 -3.01915
LeftUpLeg  -14.9422 -1.41951 -2.49978
LeftLeg  19.8821 -5.59108 -1.92574
LeftFoot  0.907116 0.430677 -4.06216
LeftToes  -4.9204e-010 1.02043e-011 -1.81609e-011
